<?xml version="1.0" encoding="UTF-8"?>
<!DOCTYPE svg PUBLIC "-//W3C//DTD SVG 1.1//EN" "http://www.w3.org/Graphics/SVG/1.1/DTD/svg11.dtd">
<!-- Creator: CorelDRAW 2019 (64-Bit) -->
<svg xmlns="http://www.w3.org/2000/svg" xml:space="preserve" width="594mm" height="420mm" version="1.1" style="shape-rendering:geometricPrecision; text-rendering:geometricPrecision; image-rendering:optimizeQuality; fill-rule:evenodd; clip-rule:evenodd"
viewBox="0 0 59400 42000"
 xmlns:xlink="http://www.w3.org/1999/xlink">
 <defs>
  <style type="text/css">
   <![CDATA[
    .fil0 {fill:white}
   ]]>
  </style>
 </defs>
 <g id="Слой_x0020_1">
  <metadata id="CorelCorpID_0Corel-Layer"/>
  <path class="fil0" d="M38694.75 20948.08c0,357.05 -136.8,372.39 -341.64,581.99l-4369.87 3981.31c-149.3,119.1 -275.73,267.09 -423.34,384.85l-5222.75 4744.82c-97.97,94.36 -180.75,166.39 -278.24,260.54 -54.67,52.8 -88.8,67.91 -144.98,124.41 -269.36,270.92 -572.89,505.78 -846.78,769.59l-846.66 769.69c-51.39,49.49 -79.42,86.83 -137.62,131.77 -65.62,50.67 -84.63,72.09 -140.73,128.66l-991.12 894.65c-51.06,44.97 -83.02,89.65 -135.71,133.69 -62.66,52.38 -84.91,66.27 -143.4,125.98 -57.7,58.91 -86.22,74.1 -144.22,125.18 -51.07,44.97 -83.02,89.64 -135.71,133.68l-566.87 510.71c-57.87,59.22 -85.8,73.98 -144.09,125.31 -285.02,250.99 -546.46,533.44 -844.86,771.49l-1128.01 1027.15c-241.27,239.11 -631.06,555.8 -846.67,769.7 -51.23,50.83 -83.27,110.21 -158.37,130.26l0 -1116.56c4.99,-78.3 12.49,-133.06 23.45,-149.23l817.54 -741.1c51.45,-43 86.32,-87.19 135.17,-134.22 263.61,-253.75 561.61,-479.71 818.04,-740.6l951.79 -857c142.44,-119.06 261.42,-265.97 406.9,-382.03l556.04 -502.3c55.23,-56.38 75.29,-67.3 133.88,-116.27 142.8,-119.37 266.01,-259.34 412.63,-376.31 50.17,-40.03 78.72,-80.28 127.17,-122.97 57.83,-50.96 86.55,-66.58 144.25,-125.15 203.74,-206.8 475.18,-413.37 673.45,-615.79 58.49,-59.71 80.75,-73.6 143.41,-125.99l270.34 -249.2c214.48,-219.48 600.67,-525.14 827.72,-750.16l2183.61 -1991.99c127.45,-129.36 276.54,-235.25 404.16,-365.54 216.35,-220.87 462.67,-404.32 682.77,-625.7l271.63 -247.93c387.62,-309.23 715.09,-685.78 1102.54,-994.88 49.99,-39.88 79.43,-78.05 126.63,-123.51l1374.28 -1242.7c145.47,-116.05 262.91,-261.2 412.35,-376.59 142.41,-109.96 495.36,-462.36 675.93,-613.3 142.8,-119.37 266.01,-259.33 412.63,-376.31l549.97 -508.37c52.3,-50.34 82.91,-62.61 135.46,-114.69l2044.12 -1881.31c-57.53,-85.93 -295.34,-296.03 -395.96,-373.73 -144.64,-111.67 -647.58,-612.88 -813.44,-745.19l-276.92 -242.63c-50.81,-44.74 -84.64,-88.57 -134.6,-134.79l-1089.39 -988.8c-59.52,-47.48 -78.01,-61.6 -132.7,-117.44 -57.7,-58.91 -86.22,-74.1 -144.22,-125.18l-1087.72 -990.46c-49.15,-48.64 -83.04,-90.66 -136.27,-133.13 -245.68,-195.99 -575.9,-521.23 -815.61,-743.02l-1645.62 -1490.9c-57.82,-58.81 -78.71,-76.5 -142.22,-127.17l-540.36 -498.73c-172.33,-170.8 -371.75,-326.06 -549.02,-490.07 -134.31,-124.25 -255.01,-256.78 -400.54,-369.14l-282.6 -256.19c-218.86,-220.12 -464.01,-405.55 -682.55,-625.93 -193.26,-194.88 -619.45,-538.77 -818.16,-740.48l-1231.29 -1116.29c-51.07,-44.97 -83.02,-89.64 -135.71,-133.68l-402.85 -366.85c-54.83,-54.27 -90.3,-70.04 -145.07,-124.32l-1769.65 -1617.02c-56.14,-56.61 -90.12,-71.56 -144.98,-124.41 -47.2,-45.47 -76.65,-83.63 -126.64,-123.52l-2191.93 -1983.67c-170.37,-157.63 -387.74,-334.18 -540.16,-498.94 -24.42,-26.4 -36.32,-48.31 -41.68,-72.4l0 -174.42c2.56,-340.5 0.08,-682.07 0,-1022.69l0 -16.53c135.68,71.79 1058.02,966.88 1275.67,1148.87l566.94 510.64c134.32,136.65 288.04,247.2 423.34,384.85 134.32,136.65 288.03,247.2 423.33,384.85 57.81,58.82 78.71,76.5 142.22,127.17l281.13 257.66c223.35,226.28 475.43,420.82 701.8,645.16 54.8,54.31 90.27,70.02 145.07,124.33 97.55,96.67 182.43,163.01 278.48,260.31l568.19 509.39c225.7,223.67 479.7,419.16 701.82,645.14l704.45 642.53c63.51,50.66 84.4,68.35 142.22,127.17l702.65 644.32c373.35,328.79 760.07,708.05 1134.29,1020.86l558.5 519.07c273.97,263.74 571.56,504.71 846.66,769.7l991.76 893.99c51.39,49.49 79.42,86.83 137.62,131.77 65.62,50.67 84.63,72.09 140.73,128.66 56.14,56.61 90.12,71.57 144.99,124.41 142.21,136.99 405.75,391.47 563.95,513.63 58.2,44.94 86.23,82.28 137.62,131.77 379.22,365.28 908.93,790.23 1270.11,1154.43 209.21,210.96 630.83,548.89 846.9,769.47l703.26 643.71c62.66,52.39 84.91,66.28 143.4,125.99 134.58,137.39 289.15,247.86 423.34,384.85 135.47,138.3 287.6,246.37 423.53,384.65 57.81,58.82 78.7,76.51 142.22,127.17 148.39,118.38 401.86,383.81 560.84,516.74l422.09 386.09c181.33,179.48 388.41,326.51 568.17,509.39 57.82,58.82 78.71,76.51 142.22,127.18 53.51,42.68 85.36,85.76 136.4,132.99 55.03,50.92 88.12,67.33 144.72,124.67 135.28,137.05 351.01,239.54 351.01,476.41z"/>
 </g>
</svg>
