<?xml version="1.0" encoding="UTF-8"?>
<!DOCTYPE svg PUBLIC "-//W3C//DTD SVG 1.1//EN" "http://www.w3.org/Graphics/SVG/1.1/DTD/svg11.dtd">
<!-- Creator: CorelDRAW 2019 (64-Bit) -->
<svg xmlns="http://www.w3.org/2000/svg" xml:space="preserve" width="594mm" height="420mm" version="1.1" style="shape-rendering:geometricPrecision; text-rendering:geometricPrecision; image-rendering:optimizeQuality; fill-rule:evenodd; clip-rule:evenodd"
viewBox="0 0 59400 42000"
 xmlns:xlink="http://www.w3.org/1999/xlink">
 <defs>
  <style type="text/css">
   <![CDATA[
    .str0 {stroke:#D9DADA;stroke-width:20;stroke-miterlimit:22.9256}
    .fil1 {fill:none}
    .fil0 {fill:#D9DADA}
   ]]>
  </style>
 </defs>
 <g id="Слой_x0020_1">
  <metadata id="CorelCorpID_0Corel-Layer"/>
  <path class="fil0 str0" d="M28818.06 12773.05c5819.18,0 10536.56,4717.38 10536.56,10536.56 0,5819.18 -4717.38,10536.56 -10536.56,10536.56 -5819.18,0 -10536.56,-4717.38 -10536.56,-10536.56 0,-5819.18 4717.38,-10536.56 10536.56,-10536.56zm0 1490.71c4995.88,0 9045.85,4049.97 9045.85,9045.85 0,4995.88 -4049.97,9045.85 -9045.85,9045.85 -4995.88,0 -9045.85,-4049.97 -9045.85,-9045.85 0,-4995.88 4049.97,-9045.85 9045.85,-9045.85z"/>
  <path class="fil1 str0" d="M24245.38 15452.56l14016.2 8092.28 -15045.15 8686.32m-2646.05 -21526.46l21948.54 12672.03 -23559.83 13602.28"/>
  <polygon class="fil0 str0" points="38669.7,25599.05 42518.92,23376.73 26667.1,14224.67 24245.38,15452.56 38261.59,23544.82 23687.29,31959.31 26033.68,32894.49 "/>
 </g>
</svg>
