<?xml version="1.0" encoding="UTF-8"?>
<!DOCTYPE svg PUBLIC "-//W3C//DTD SVG 1.1//EN" "http://www.w3.org/Graphics/SVG/1.1/DTD/svg11.dtd">
<!-- Creator: CorelDRAW 2019 (64-Bit) -->
<svg xmlns="http://www.w3.org/2000/svg" xml:space="preserve" width="594mm" height="420mm" version="1.1" style="shape-rendering:geometricPrecision; text-rendering:geometricPrecision; image-rendering:optimizeQuality; fill-rule:evenodd; clip-rule:evenodd"
viewBox="0 0 59400 42000"
 xmlns:xlink="http://www.w3.org/1999/xlink">
 <defs>
  <style type="text/css">
   <![CDATA[
    .str0 {stroke:#D9DADA;stroke-width:20;stroke-miterlimit:22.9256}
    .fil1 {fill:none}
    .fil0 {fill:#D9DADA}
   ]]>
  </style>
 </defs>
 <g id="Слой_x0020_1">
  <metadata id="CorelCorpID_0Corel-Layer"/>
  <path class="fil0 str0" d="M31982.36 12773.05c-5819.18,0 -10536.56,4717.38 -10536.56,10536.56 0,5819.18 4717.38,10536.56 10536.56,10536.56 5819.18,0 10536.56,-4717.38 10536.56,-10536.56 0,-5819.18 -4717.38,-10536.56 -10536.56,-10536.56zm0 1490.71c-4995.88,0 -9045.85,4049.97 -9045.85,9045.85 0,4995.88 4049.97,9045.85 9045.85,9045.85 4995.88,0 9045.85,-4049.97 9045.85,-9045.85 0,-4995.88 -4049.97,-9045.85 -9045.85,-9045.85z"/>
  <path class="fil1 str0" d="M36555.04 15452.56l-14016.2 8092.28 15045.15 8686.32m2646.05 -21526.46l-21948.54 12672.03 23559.83 13602.28"/>
  <polygon class="fil0 str0" points="22130.72,25599.05 18281.5,23376.73 34133.32,14224.67 36555.04,15452.56 22538.83,23544.82 37113.13,31959.31 34766.74,32894.49 "/>
 </g>
</svg>
